<svg width="20" height="20" viewBox="0 0 20 20" fill="none" xmlns="http://www.w3.org/2000/svg">
<path d="M17.0754 2.92657C13.1759 -0.972919 6.82893 -0.972919 2.92944 2.92657C1.04052 4.81624 0 7.3281 0 9.99953C0 12.671 1.04052 15.1828 2.92944 17.0717C4.87958 19.0219 7.44101 19.9965 10.0024 19.9965C12.5638 19.9965 15.1253 19.0219 17.0754 17.0717C20.9749 13.1723 20.9749 6.8268 17.0754 2.92657ZM15.9798 15.9762C12.6839 19.2721 7.32089 19.2721 4.02496 15.9762C2.42893 14.3802 1.54955 12.2572 1.54955 9.99953C1.54955 7.74181 2.42893 5.6189 4.02496 4.02209C7.32089 0.726159 12.6839 0.72694 15.9798 4.02209C19.275 7.31802 19.275 12.681 15.9798 15.9762Z" fill="#EDEDED"/>
<path d="M13.3414 12.1412L11.148 9.95094L13.3414 7.76065C13.6436 7.45849 13.6436 6.96806 13.3422 6.66509C13.0393 6.36138 12.5488 6.36216 12.2459 6.66431L10.051 8.85616L7.85602 6.66431C7.55309 6.36216 7.06265 6.36138 6.75972 6.66509C6.45757 6.96802 6.45757 7.45846 6.7605 7.76065L8.95392 9.95094L6.7605 12.1412C6.45757 12.4434 6.45757 12.9338 6.75972 13.2368C6.91081 13.3886 7.10992 13.4638 7.30828 13.4638C7.50664 13.4638 7.70496 13.3878 7.85606 13.2375L10.051 11.0457L12.2459 13.2375C12.397 13.3886 12.5954 13.4638 12.7937 13.4638C12.9921 13.4638 13.1912 13.3878 13.3423 13.2368C13.6444 12.9338 13.6444 12.4434 13.3414 12.1412Z" fill="#EDEDED"/>
</svg>
