<svg width="22" height="22" viewBox="0 0 17 20" fill="none" xmlns="http://www.w3.org/2000/svg">
<g clip-path="url(#clip0_5_89)">
<path d="M2.90598 11.2047H11.6917C12.1105 11.2047 12.45 10.8109 12.45 10.3252C12.45 9.83947 12.1105 9.44568 11.6917 9.44568H2.90598L3.88644 8.30857C4.18259 7.96514 4.18259 7.40823 3.88644 7.06474C3.59039 6.72126 3.11022 6.72126 2.81402 7.06474L0.5392 9.70315C0.521606 9.72349 0.505024 9.74478 0.489251 9.76706C0.485409 9.77251 0.482123 9.77838 0.478382 9.78395C0.466805 9.80101 0.45543 9.81813 0.445016 9.83619C0.441983 9.84147 0.439505 9.84704 0.436523 9.85237C0.426108 9.87125 0.415896 9.89031 0.406695 9.91019C0.404926 9.91412 0.40346 9.91828 0.40169 9.92221C0.392135 9.94373 0.382934 9.96554 0.374896 9.98805C0.373885 9.99081 0.373177 9.99374 0.372217 9.99656C0.363976 10.0202 0.356343 10.0442 0.349872 10.0689C0.349012 10.072 0.348557 10.0752 0.347799 10.0784C0.341682 10.1026 0.33607 10.1271 0.331773 10.1521C0.330509 10.1596 0.329953 10.1672 0.32879 10.1747C0.325656 10.1955 0.322521 10.2163 0.320752 10.2374C0.318174 10.2665 0.31691 10.2958 0.31691 10.3252C0.31691 10.3546 0.318174 10.384 0.320752 10.413C0.322521 10.4345 0.325757 10.4554 0.328841 10.4764C0.329953 10.4836 0.330509 10.4911 0.331773 10.4983C0.336121 10.5236 0.341682 10.5483 0.347849 10.5727C0.348608 10.5756 0.349063 10.5786 0.349821 10.5815C0.356343 10.6063 0.363976 10.6305 0.372318 10.6544C0.373228 10.657 0.373885 10.6598 0.374846 10.6624C0.382934 10.6851 0.392186 10.707 0.401842 10.7286C0.40351 10.7324 0.404926 10.7364 0.406645 10.7402C0.415947 10.7602 0.426209 10.7795 0.436775 10.7985C0.439606 10.8037 0.442033 10.8091 0.444965 10.8142C0.45543 10.8323 0.466906 10.8495 0.478433 10.8666C0.482123 10.8722 0.485409 10.878 0.489201 10.8834C0.505024 10.9056 0.521606 10.9269 0.539149 10.9473L2.81397 13.5857C2.96204 13.7575 3.15612 13.8433 3.3502 13.8433C3.54428 13.8433 3.73836 13.7575 3.88639 13.5857C4.18254 13.2422 4.18254 12.6853 3.88639 12.3418L2.90598 11.2047Z" fill="#EDEDED"/>
<path d="M10.7969 3.13062C8.72694 3.13062 6.80111 4.32161 5.64517 6.31644C5.4116 6.71955 5.50402 7.26603 5.85158 7.53698C6.1992 7.80788 6.67032 7.70081 6.90398 7.29758C7.77762 5.78978 9.23289 4.88961 10.7969 4.88961C13.381 4.88967 15.4833 7.32801 15.4833 10.3252C15.4833 13.3224 13.381 15.7607 10.7969 15.7607C9.2375 15.7607 7.7846 14.8646 6.9103 13.3637C6.67578 12.9611 6.20451 12.8554 5.8574 13.1273C5.51039 13.3992 5.41909 13.9459 5.65356 14.3484C6.81031 16.3342 8.73301 17.5198 10.7969 17.5198C14.2173 17.5198 17 14.2923 17 10.3252C17 6.35807 14.2173 3.13062 10.7969 3.13062Z" fill="#EDEDED"/>
</g>
<defs>
<clipPath id="clip0_5_89">
<rect width="16.6831" height="19.3496" fill="white" transform="translate(0.31691 0.650391)"/>
</clipPath>
</defs>
</svg>
