<svg width="16" height="17" viewBox="0 0 16 17" fill="none" xmlns="http://www.w3.org/2000/svg">
<g clip-path="url(#clip0_341_153)">
<path d="M7.83604 0.265625C4.7979 0.265625 2.32617 2.88482 2.32617 6.10423C2.32617 7.19197 2.61051 8.25349 3.14864 9.17443L7.52241 16.6432C7.60619 16.7863 7.75379 16.8732 7.91253 16.8732C7.91376 16.8732 7.91495 16.8732 7.91618 16.8732C8.0763 16.8719 8.22421 16.7823 8.30646 16.6367L12.5687 9.09555C13.0772 8.19407 13.3459 7.15969 13.3459 6.10423C13.3459 2.88482 10.8742 0.265625 7.83604 0.265625ZM11.7807 8.59596L7.90559 15.452L3.92915 8.66174C3.48122 7.89519 3.23836 7.01084 3.23836 6.10423C3.23836 3.42139 5.30426 1.23224 7.83604 1.23224C10.3678 1.23224 12.4307 3.42139 12.4307 6.10423C12.4307 6.98395 12.2038 7.8457 11.7807 8.59596Z" fill="#1D2730"/>
<path d="M7.83697 3.18555C6.31789 3.18555 5.08203 4.49515 5.08203 6.10485C5.08203 7.70427 6.29778 9.02416 7.83697 9.02416C9.39513 9.02416 10.5919 7.68669 10.5919 6.10485C10.5919 4.49515 9.35604 3.18555 7.83697 3.18555ZM7.83697 8.05754C6.81896 8.05754 5.99422 7.18068 5.99422 6.10485C5.99422 5.03171 6.82425 4.15216 7.83697 4.15216C8.84968 4.15216 9.67665 5.03171 9.67665 6.10485C9.67665 7.16498 8.87111 8.05754 7.83697 8.05754Z" fill="#1D2730"/>
</g>
<defs>
<clipPath id="clip0_341_153">
<rect width="15.6725" height="16.6076" fill="white" transform="translate(0 0.265625)"/>
</clipPath>
</defs>
</svg>
