<svg width="22" height="22" viewBox="0 0 18 20" fill="none" xmlns="http://www.w3.org/2000/svg">
<g clip-path="url(#clip0_3_40)">
<path d="M12.3722 12.1324C14.3748 8.85258 13.705 4.31091 10.8771 1.98876C8.04925 -0.3334 4.13345 0.442872 2.1313 3.7233C0.129153 7.00317 0.79845 11.5443 3.62682 13.8664C5.64523 15.5239 8.31381 15.6515 10.4427 14.1933L15.0685 19.5262C15.568 20.136 16.399 20.1604 16.9247 19.5811C17.4505 19.0024 17.4716 18.0386 16.9726 17.4287C16.9568 17.4093 16.9415 17.3916 16.9247 17.3733L12.3722 12.1324ZM7.24791 12.6296C5.01325 12.6302 3.20151 10.5305 3.20007 7.9387C3.1996 5.34687 5.0099 3.24555 7.24504 3.24444C9.47683 3.24333 11.2876 5.33966 11.2919 7.92815C11.2957 10.5205 9.4864 12.6252 7.25078 12.6296C7.24983 12.6296 7.24935 12.6296 7.24791 12.6296Z" fill="#EDEDED"/>
</g>
<defs>
<clipPath id="clip0_3_40">
<rect width="16.6831" height="19.3496" fill="white" transform="translate(0.827225 0.650391)"/>
</clipPath>
</defs>
</svg>
