<svg width="16" height="19" viewBox="0 0 16 19" fill="none" xmlns="http://www.w3.org/2000/svg">
<g clip-path="url(#clip0_341_291)">
<path d="M8.90096 12.6504C8.84244 12.574 8.76838 12.5168 8.69186 12.4692C8.52525 12.3656 8.34303 12.3028 8.16211 12.2461V13.9174C8.45577 13.8778 8.79291 13.7508 8.9471 13.424C9.0207 13.2678 9.03534 13.076 9.00536 12.9022C8.9891 12.8081 8.9555 12.7216 8.90096 12.6504Z" fill="#1D2730"/>
<path d="M8.94727 13.4297C8.94824 13.4283 8.94879 13.4274 8.94983 13.4258C8.94898 13.4271 8.94812 13.4284 8.94727 13.4297Z" fill="#1D2730"/>
<path d="M6.78611 9.97885C6.73562 10.0667 6.70394 10.1666 6.6952 10.2727C6.68646 10.3791 6.69137 10.4974 6.72526 10.5975C6.75753 10.6929 6.82512 10.7633 6.8949 10.82C6.97319 10.8835 7.0593 10.9331 7.147 10.9751C7.22057 11.0104 7.30333 11.0442 7.39253 11.0768V9.56445C7.16717 9.62178 6.92093 9.74418 6.78611 9.97885Z" fill="#1D2730"/>
<path d="M8.95306 13.4121C8.95121 13.4161 8.94922 13.4202 8.94727 13.4246C8.94955 13.4195 8.95136 13.4158 8.95306 13.4121Z" fill="#1D2730"/>
<path d="M8.65682 4.30547C9.84905 3.11152 10.6457 0.421707 10.1554 0.304061C9.50402 0.147684 8.08944 0.83338 7.40572 0.954191C6.43597 1.09377 5.37978 -0.299424 4.78692 0.477145C4.30489 1.10855 5.13251 3.40475 6.42734 4.40509C2.56427 6.6685 -2.86553 18.031 6.60705 18.8554C19.714 19.9963 13.1509 6.51111 8.65682 4.30547ZM9.78245 13.2665C9.74214 13.7095 9.54521 14.11 9.25085 14.382C8.94004 14.6692 8.5502 14.8027 8.16287 14.8401V15.3296C8.16287 15.4606 8.11489 15.5872 8.03265 15.6739C7.91962 15.7931 7.75352 15.8225 7.61633 15.7472C7.48088 15.6729 7.39189 15.5073 7.39189 15.3296V14.7946C7.32547 14.7796 7.25954 14.7617 7.19437 14.7404C6.83237 14.6218 6.4966 14.3907 6.25132 14.0488C6.12914 13.8783 6.02954 13.6849 5.96065 13.4761C5.94265 13.4216 5.92661 13.366 5.91256 13.3098C5.89983 13.259 5.88671 13.2073 5.88217 13.1542C5.87454 13.0653 5.88932 12.9746 5.9241 12.8953C5.99557 12.7324 6.14618 12.6339 6.29996 12.6503C6.45131 12.6663 6.58396 12.7915 6.63161 12.9635C6.64629 13.0165 6.65624 13.0708 6.67273 13.1232C6.68907 13.1752 6.7088 13.2258 6.73199 13.274C6.77779 13.3689 6.83518 13.4564 6.90126 13.5323C7.03749 13.6887 7.211 13.7904 7.39189 13.8509V12.0325C7.03819 11.9234 6.6731 11.7824 6.38102 11.5116C6.23908 11.38 6.11863 11.2165 6.03975 11.0229C5.95652 10.8186 5.92204 10.591 5.92063 10.3649C5.9192 10.1354 5.95578 9.9079 6.0361 9.69876C6.11133 9.50295 6.21964 9.32714 6.35244 9.1814C6.6364 8.86983 7.01359 8.69605 7.39193 8.63221V8.59221V8.12413C7.39193 7.99321 7.43991 7.8665 7.52215 7.77981C7.63521 7.66062 7.80124 7.63117 7.93846 7.70652C8.07388 7.78086 8.1629 7.94643 8.1629 8.12413V8.59221V8.62944C8.21332 8.637 8.26358 8.64606 8.31359 8.65688C8.6851 8.73702 9.04846 8.91991 9.32014 9.23921C9.44885 9.39045 9.55421 9.57065 9.6283 9.76717C9.64899 9.82199 9.66709 9.87809 9.68277 9.93529C9.69737 9.98861 9.71205 10.0435 9.71902 10.0992C9.73016 10.188 9.7188 10.2798 9.6869 10.3611C9.62155 10.5276 9.475 10.6337 9.32081 10.6258C9.16931 10.6179 9.03205 10.5003 8.9778 10.3315C8.96165 10.2813 8.95357 10.2282 8.93709 10.1781C8.92046 10.1274 8.89892 10.079 8.8741 10.0334C8.82586 9.94456 8.76336 9.86842 8.692 9.80568C8.53748 9.66966 8.35006 9.59879 8.16279 9.55918V11.2993C8.38535 11.3629 8.6081 11.4322 8.82133 11.5324C9.14361 11.6839 9.449 11.9162 9.62491 12.2825C9.59762 12.2254 9.57106 12.1698 9.62583 12.2844C9.6796 12.3969 9.65393 12.3433 9.62693 12.2869C9.76689 12.5809 9.81287 12.9325 9.78245 13.2665Z" fill="#1D2730"/>
<path d="M8.94323 13.4375C8.94099 13.4423 8.93904 13.4466 8.9375 13.4499C8.93882 13.4471 8.94081 13.4428 8.94323 13.4375Z" fill="#1D2730"/>
</g>
<defs>
<clipPath id="clip0_341_291">
<rect width="15.6725" height="18.6835" fill="white" transform="translate(0 0.240234)"/>
</clipPath>
</defs>
</svg>
