<svg width="22" height="22" viewBox="0 0 14 20" fill="none" xmlns="http://www.w3.org/2000/svg">
<path d="M12.7635 14.3097C12.2303 14.3097 11.7965 13.8065 11.7965 13.1881V9.24373C11.7965 6.67466 10.3744 4.48392 8.39526 3.67399V2.60992C8.3953 1.52944 7.63739 0.650391 6.7058 0.650391C5.77422 0.650391 5.01634 1.52944 5.01634 2.60992V3.67399C3.03728 4.48392 1.61507 6.67462 1.61507 9.24373V13.1881C1.61507 13.8065 1.18128 14.3097 0.648072 14.3097C0.378145 14.3097 0.159309 14.5635 0.159309 14.8765V17.0672C0.159309 17.3803 0.378145 17.6341 0.648072 17.6341H4.85007V17.8477C4.85007 19.0344 5.68256 20 6.7058 20C7.72905 20 8.56154 19.0344 8.56154 17.8477V17.6341H12.7635C13.0335 17.6341 13.2523 17.3803 13.2523 17.0672V14.8765C13.2523 14.5634 13.0335 14.3097 12.7635 14.3097V14.3097ZM5.99387 2.60992C5.99387 2.1546 6.31323 1.78416 6.7058 1.78416C7.09838 1.78416 7.41777 2.1546 7.41777 2.60992V3.39735C7.18502 3.35941 6.94742 3.33934 6.7058 3.33934C6.46419 3.33934 6.22659 3.35941 5.99387 3.39735V2.60992ZM7.58401 17.8477C7.58401 18.4093 7.19004 18.8662 6.7058 18.8662C6.22157 18.8662 5.82759 18.4093 5.82759 17.8477V17.6341H7.58401V17.8477ZM12.2748 16.5003H1.13684V15.3712C1.97321 15.1192 2.5926 14.2359 2.5926 13.1881V9.2437C2.5926 6.61317 4.43778 4.47307 6.7058 4.47307C8.97383 4.47307 10.819 6.61317 10.819 9.2437V13.1881C10.819 14.2359 11.4384 15.1192 12.2748 15.3712V16.5003Z" fill="#EDEDED"/>
</svg>
