<svg width="22" height="22" viewBox="0 0 18 20" fill="none" xmlns="http://www.w3.org/2000/svg">
<g clip-path="url(#clip0_4_67)">
<path d="M4.97956 18.4883H2.67237C2.39416 18.4883 2.22632 18.3082 2.15105 18.2009C2.02111 18.0155 1.97076 17.7742 2.01303 17.5388C2.68977 13.7686 5.55848 11.0152 8.87021 10.9259C8.92537 10.9283 8.98067 10.9299 9.03629 10.9299C9.0924 10.9299 9.14818 10.9282 9.20384 10.9258C10.0137 10.9473 10.8047 11.1239 11.5576 11.4518C11.8945 11.5986 12.2702 11.4007 12.3968 11.0099C12.5233 10.6191 12.3527 10.1833 12.0158 10.0366C11.9079 9.98956 11.7992 9.94557 11.6901 9.90385C12.7686 8.96547 13.4677 7.47071 13.4677 5.79013C13.4677 2.95609 11.4798 0.650391 9.03629 0.650391C6.59277 0.650391 4.60484 2.95609 4.60484 5.79013C4.60484 7.47222 5.30514 8.96815 6.38534 9.90638C5.39572 10.2842 4.46707 10.8718 3.65436 11.6472C2.16422 13.0688 1.12814 15.0517 0.737028 17.2307C0.614446 17.9135 0.761271 18.6147 1.13987 19.1546C1.51654 19.6919 2.07513 20 2.67237 20H4.97956C5.33948 20 5.63124 19.6616 5.63124 19.2442C5.63124 18.8267 5.33948 18.4883 4.97956 18.4883ZM5.90821 5.79013C5.90821 3.7896 7.31144 2.16208 9.03629 2.16208C10.7611 2.16208 12.1644 3.7896 12.1644 5.79013C12.1644 7.7314 10.843 9.32136 9.18859 9.41384C9.13785 9.41278 9.08712 9.41187 9.03629 9.41187C8.98533 9.41187 8.9344 9.41274 8.8835 9.4138C7.22936 9.32106 5.90821 7.73121 5.90821 5.79013Z" fill="#EDEDED"/>
<path d="M16.8787 13.6737C16.5998 12.95 15.9714 12.4811 15.2764 12.4792H13.244C13.2425 12.4792 13.2412 12.4792 13.2397 12.4792C12.5065 12.4792 11.8669 12.9804 11.6095 13.7569C11.5753 13.8602 11.5334 13.9904 11.4897 14.1421H7.22294C7.04675 14.1421 6.8781 14.2248 6.75535 14.3714L5.63589 15.7088C5.38933 16.0034 5.39056 16.4723 5.63866 16.7651L6.77911 18.111C6.90162 18.2556 7.06911 18.337 7.24389 18.337H9.36186C9.72179 18.337 10.0135 17.9986 10.0135 17.5812C10.0135 17.1637 9.72179 16.8253 9.36186 16.8253H7.51714L7.01443 16.2321L7.49853 15.6538H11.9786C12.2788 15.6538 12.5402 15.4159 12.6115 15.0777C12.6643 14.828 12.7304 14.5879 12.8261 14.2993C12.8892 14.109 13.0476 13.9909 13.2412 13.9909C13.2417 13.9909 13.2421 13.9909 13.2425 13.9909H15.2748C15.4591 13.9914 15.6177 14.1063 15.6888 14.2907C15.8637 14.7447 16.0726 15.4474 16.0742 16.2176C16.0758 16.9934 15.8671 17.7123 15.6917 18.1788C15.621 18.3669 15.461 18.4882 15.2824 18.4882C15.2821 18.4882 15.2817 18.4882 15.2814 18.4882H13.2245C13.0442 18.4877 12.8753 18.3532 12.8043 18.1534C12.7281 17.9391 12.662 17.6944 12.6024 17.4053C12.5186 16.9993 12.1668 16.749 11.8169 16.8461C11.4669 16.9433 11.251 17.3512 11.3348 17.7571C11.4104 18.1237 11.497 18.4418 11.5994 18.7298C11.8731 19.4994 12.5098 19.9979 13.223 19.9999H15.2799C15.2813 19.9999 15.2826 19.9999 15.284 19.9999C15.9797 19.9998 16.6084 19.5225 16.8865 18.7829C17.1117 18.1839 17.3797 17.2519 17.3776 16.214C17.3755 15.1789 17.1051 14.2613 16.8787 13.6737Z" fill="#EDEDED"/>
<path d="M14.7383 16.9765C15.0982 16.9765 15.39 16.6381 15.39 16.2207C15.39 15.8032 15.0982 15.4648 14.7383 15.4648C14.3784 15.4648 14.0866 15.8032 14.0866 16.2207C14.0866 16.6381 14.3784 16.9765 14.7383 16.9765Z" fill="#EDEDED"/>
</g>
<defs>
<clipPath id="clip0_4_67">
<rect width="16.6831" height="19.3496" fill="white" transform="translate(0.694481 0.650391)"/>
</clipPath>
</defs>
</svg>
