<svg width="22" height="22" viewBox="0 0 17 20" fill="none" xmlns="http://www.w3.org/2000/svg">
<g clip-path="url(#clip0_4_47)">
<path d="M16.1941 7.17111C15.9603 6.93274 15.6727 6.77907 15.3621 6.72672L11.5592 6.08581L9.85856 2.08911C9.71964 1.76268 9.50471 1.49278 9.23704 1.30867C8.98871 1.13791 8.70413 1.04761 8.41401 1.04761C8.1239 1.04761 7.83929 1.13787 7.59099 1.30867C7.32331 1.49278 7.10842 1.76265 6.9695 2.08911L5.26883 6.08585L1.46601 6.72672C1.15539 6.77907 0.867681 6.93274 0.634003 7.17111C0.417225 7.39224 0.25528 7.67827 0.165621 7.9983C0.0759898 8.31831 0.0620533 8.66013 0.125335 8.98681C0.193577 9.33895 0.348457 9.65943 0.573242 9.91352L3.32499 13.0246L2.67538 17.4174C2.59489 17.9617 2.72408 18.5151 3.02986 18.9358C3.3379 19.3596 3.78736 19.6026 4.26297 19.6026C4.522 19.6026 4.78125 19.5281 5.01268 19.3869L8.41404 17.3129L11.8154 19.3869C12.0468 19.5281 12.3061 19.6026 12.5651 19.6026C13.0407 19.6026 13.4902 19.3596 13.7982 18.9358C14.104 18.5151 14.2332 17.9617 14.1527 17.4174L13.5031 13.0246L16.2549 9.91352C16.4796 9.6594 16.6345 9.33895 16.7027 8.98681C16.7661 8.66013 16.7521 8.31831 16.6625 7.9983C16.5728 7.6783 16.4108 7.39227 16.1941 7.17111ZM15.4263 8.92772L12.3873 12.3635C12.2874 12.4765 12.2418 12.6392 12.2654 12.7987L12.9828 17.6501C13.0298 17.9679 12.8121 18.226 12.5651 18.226C12.4999 18.226 12.4327 18.208 12.3678 18.1684L8.61134 15.8779C8.54958 15.8403 8.48181 15.8214 8.41407 15.8214C8.34633 15.8214 8.27855 15.8403 8.2168 15.8779L4.46038 18.1684C4.39546 18.208 4.32819 18.226 4.26302 18.226C4.01599 18.226 3.7983 17.9679 3.84529 17.6501L4.5627 12.7987C4.58631 12.6392 4.5407 12.4765 4.44079 12.3635L1.40173 8.92772C1.15012 8.64329 1.28896 8.1477 1.63665 8.08909L5.83649 7.38128C5.97455 7.35801 6.09391 7.25743 6.15567 7.11231L8.0339 2.69836C8.11165 2.51564 8.26285 2.42428 8.41404 2.42428C8.56526 2.42428 8.71643 2.51567 8.79415 2.69836L10.6724 7.11231C10.7341 7.2574 10.8535 7.35801 10.9916 7.38128L15.1914 8.08909C15.5391 8.1477 15.6779 8.64329 15.4263 8.92772Z" fill="#EDEDED"/>
<path d="M12.5645 19.6188C12.3032 19.6188 12.0418 19.5436 11.8084 19.4012L8.41347 17.3311L5.01857 19.4013C4.78514 19.5436 4.52368 19.6188 4.2624 19.6188C3.78269 19.6188 3.32938 19.3737 3.01868 18.9463C2.71027 18.522 2.57997 17.9638 2.66115 17.4148L3.30951 13.0303L0.562977 9.92516C0.336281 9.66889 0.180098 9.34567 0.111247 8.99048C0.0474106 8.66097 0.0614579 8.31622 0.151865 7.99349C0.242299 7.67076 0.405658 7.38225 0.624292 7.15923C0.859992 6.91879 1.15019 6.76381 1.46347 6.71101L5.25909 6.07133L6.95654 2.08217C7.09666 1.75291 7.31341 1.48073 7.58341 1.29502C7.83388 1.12278 8.12089 1.03174 8.4135 1.03174C8.70608 1.03174 8.99313 1.12278 9.24359 1.29502C9.51357 1.4807 9.73035 1.75291 9.87046 2.08217L11.5679 6.07133L15.3636 6.71101C15.6768 6.76377 15.967 6.91876 16.2027 7.15923C16.4213 7.38225 16.5847 7.67076 16.6751 7.99352C16.7655 8.31629 16.7796 8.66103 16.7157 8.99051C16.6469 9.3457 16.4907 9.66889 16.264 9.92519L13.5174 13.0303L14.1658 17.4148C14.247 17.9638 14.1167 18.522 13.8082 18.9463C13.4975 19.3737 13.0442 19.6188 12.5645 19.6188ZM8.41345 17.2949L8.4199 17.2988L11.8212 19.3728C12.0507 19.5127 12.3077 19.5867 12.5645 19.5867C13.036 19.5867 13.4816 19.3457 13.787 18.9256C14.0901 18.5085 14.2182 17.9598 14.1384 17.4202L13.4876 13.019L16.2446 9.90212C16.4674 9.65018 16.621 9.33249 16.6886 8.98341C16.7514 8.65955 16.7376 8.32066 16.6487 8.00339C16.5598 7.68612 16.3993 7.40252 16.1843 7.1833C15.9527 6.94698 15.6674 6.79462 15.3595 6.74276L11.5494 6.10067L11.5462 6.09308L9.84558 2.09631C9.70785 1.77265 9.49478 1.50512 9.22944 1.32259C8.98323 1.15327 8.7011 1.06378 8.41347 1.06378C8.12585 1.06378 7.84369 1.15327 7.59751 1.32259C7.33216 1.50509 7.1191 1.77265 6.98137 2.09631L5.27746 6.1006L5.27026 6.10182L1.46743 6.74273C1.1595 6.79462 0.874261 6.94694 0.642578 7.18327C0.427685 7.40249 0.267097 7.68605 0.178214 8.00335C0.0893308 8.32062 0.0755329 8.65949 0.138289 8.98338C0.205948 9.33249 0.359499 9.65018 0.582344 9.90212L3.3393 13.019L3.33808 13.0274L2.68847 17.4202C2.60867 17.9598 2.73676 18.5085 3.0399 18.9256C3.34531 19.3457 3.79089 19.5867 4.26243 19.5867C4.51922 19.5867 4.77622 19.5127 5.00569 19.3728L8.41345 17.2949ZM12.5645 18.2421C12.4939 18.2421 12.4254 18.2222 12.3607 18.1827L8.60432 15.8922C8.48715 15.8207 8.33994 15.8207 8.22266 15.8922L4.46624 18.1827C4.4016 18.2222 4.33303 18.2421 4.26246 18.2421C4.13343 18.2421 4.01088 18.1754 3.92621 18.0589C3.84262 17.9439 3.80884 17.7978 3.83106 17.6475L4.54847 12.796C4.5713 12.6418 4.52719 12.4844 4.43053 12.3751L1.39149 8.93932C1.2713 8.80345 1.22885 8.60402 1.28072 8.41886C1.33259 8.2337 1.46799 8.1013 1.63412 8.07331L5.83395 7.3655C5.96753 7.34298 6.08295 7.2457 6.14269 7.10534L8.02093 2.69139C8.09521 2.5168 8.2456 2.40834 8.41347 2.40834C8.58132 2.40834 8.73174 2.5168 8.80599 2.69139L10.6842 7.10534C10.744 7.24574 10.8594 7.34301 10.993 7.3655L15.1928 8.07331C15.3589 8.1013 15.4944 8.23373 15.5462 8.41889C15.5981 8.60402 15.5556 8.80345 15.4354 8.93932L12.3964 12.3751C12.2997 12.4844 12.2556 12.6418 12.2785 12.7961L12.9959 17.6475C13.0181 17.7978 12.9843 17.9439 12.9007 18.0589C12.8161 18.1754 12.6935 18.2421 12.5645 18.2421ZM8.41345 15.8054C8.48415 15.8054 8.55461 15.8256 8.61717 15.8638L12.3736 18.1543C12.4342 18.1912 12.4985 18.21 12.5645 18.21C12.6853 18.21 12.8002 18.1473 12.8795 18.0381C12.9578 17.9305 12.9894 17.7937 12.9686 17.6529L12.2512 12.8015C12.2268 12.6367 12.2738 12.4688 12.3771 12.3521L15.4161 8.91628C15.5287 8.78899 15.5684 8.60219 15.5199 8.42879C15.4713 8.25536 15.3444 8.13132 15.1888 8.10506L10.989 7.39725C10.8464 7.37322 10.7232 7.26939 10.6594 7.11951L8.78114 2.70556C8.71154 2.54202 8.57065 2.44045 8.41345 2.44045C8.25621 2.44045 8.11532 2.54202 8.04575 2.70556L6.16751 7.11951C6.10373 7.26939 5.98052 7.37325 5.83791 7.39725L1.63808 8.10509C1.48248 8.13132 1.35564 8.25536 1.30707 8.42879C1.2585 8.60222 1.29826 8.78903 1.41083 8.91631L4.44984 12.3521C4.55304 12.4688 4.60012 12.6368 4.57574 12.8015L3.85833 17.6529C3.83752 17.7937 3.86913 17.9306 3.94735 18.0382C4.02673 18.1473 4.14157 18.21 4.2624 18.21C4.32845 18.21 4.39268 18.1912 4.4533 18.1543L8.20972 15.8638C8.27234 15.8256 8.34277 15.8054 8.41345 15.8054Z" fill="#EDEDED"/>
</g>
<defs>
<clipPath id="clip0_4_47">
<rect width="16.6831" height="19.3496" fill="white" transform="translate(0.072052 0.650391)"/>
</clipPath>
</defs>
</svg>
