<svg width="20" height="21" viewBox="0 0 20 21" fill="none" xmlns="http://www.w3.org/2000/svg">
<path d="M19.3278 7.0814C19.0476 6.82566 18.7027 6.66079 18.3304 6.60463L13.7715 5.91703L11.7327 1.6291C11.5661 1.27889 11.3085 0.989323 10.9876 0.791807C10.6899 0.608598 10.3487 0.511719 10.0009 0.511719C9.65313 0.511719 9.31195 0.608563 9.01427 0.791807C8.69338 0.989323 8.43576 1.27886 8.26922 1.6291L6.23044 5.91706L1.67155 6.60463C1.29918 6.66079 0.954269 6.82566 0.674131 7.0814C0.414256 7.31864 0.220113 7.62551 0.112628 7.96887C0.00517701 8.31218 -0.0115302 8.67891 0.0643333 9.0294C0.146142 9.4072 0.331815 9.75103 0.60129 10.0236L3.90013 13.3613L3.12136 18.0742C3.02487 18.6582 3.17975 19.252 3.54632 19.7033C3.9156 20.158 4.45442 20.4187 5.02459 20.4187C5.33512 20.4187 5.64592 20.3387 5.92336 20.1873L10.001 17.9622L14.0786 20.1873C14.356 20.3387 14.6668 20.4187 14.9773 20.4187C15.5475 20.4187 16.0863 20.158 16.4556 19.7033C16.8222 19.252 16.9771 18.6583 16.8806 18.0742L16.1018 13.3613L19.4007 10.0236C19.6701 9.75099 19.8558 9.4072 19.9376 9.0294C20.0135 8.67891 19.9968 8.31218 19.8893 7.96887C19.7818 7.62555 19.5876 7.31867 19.3278 7.0814ZM18.4074 8.966L14.7642 12.6522C14.6444 12.7734 14.5897 12.9479 14.618 13.119L15.4781 18.3239C15.5344 18.6649 15.2734 18.9418 14.9773 18.9418C14.8991 18.9418 14.8186 18.9225 14.7407 18.88L10.2375 16.4226C10.1635 16.3822 10.0822 16.362 10.001 16.362C9.91978 16.362 9.83854 16.3822 9.7645 16.4226L5.26125 18.88C5.18343 18.9225 5.10278 18.9418 5.02466 18.9418C4.72851 18.9418 4.46754 18.6649 4.52387 18.3239L5.38392 13.119C5.41222 12.9479 5.35754 12.7734 5.23777 12.6522L1.59449 8.966C1.29286 8.66085 1.45931 8.12915 1.87612 8.06626L6.91095 7.30688C7.07646 7.28192 7.21955 7.17401 7.29359 7.01831L9.54525 2.28275C9.63845 2.08671 9.81971 1.9887 10.001 1.9887C10.1823 1.9887 10.3635 2.08675 10.4566 2.28275L12.7083 7.01831C12.7823 7.17397 12.9254 7.28192 13.0909 7.30688L18.1257 8.06626C18.5426 8.12915 18.709 8.66085 18.4074 8.966Z" fill="black"/>
</svg>
