<svg width="16" height="17" viewBox="0 0 16 17" fill="none" xmlns="http://www.w3.org/2000/svg">
<g clip-path="url(#clip0_341_162)">
<path d="M14.0311 12.6263C13.7598 12.4125 13.3763 12.4722 13.1745 12.7596C13.0635 12.9177 12.9448 13.0728 12.8215 13.2205C12.5976 13.4889 12.6214 13.8989 12.8747 14.1363C12.9912 14.2454 13.1358 14.299 13.2799 14.299C13.4493 14.299 13.6179 14.2249 13.7388 14.0799C13.8848 13.9049 14.0255 13.7213 14.1569 13.534C14.3587 13.2466 14.3024 12.8401 14.0311 12.6263Z" fill="#1D2730"/>
<path d="M15.0563 9.58334C14.7261 9.50714 14.3998 9.72917 14.3279 10.0792C14.2883 10.2718 14.2405 10.4647 14.1857 10.6527C14.0858 10.9951 14.2668 11.3583 14.5898 11.4641C14.65 11.4838 14.7109 11.4931 14.7708 11.4931C15.0322 11.4931 15.2742 11.3143 15.3555 11.0357C15.4206 10.8126 15.4773 10.5836 15.5243 10.3552C15.5962 10.0051 15.3866 9.65956 15.0563 9.58334Z" fill="#1D2730"/>
<path d="M11.0852 14.7035C10.9226 14.7996 10.7543 14.8895 10.585 14.9706C10.2768 15.118 10.1399 15.5023 10.279 15.8288C10.3813 16.0687 10.6041 16.2107 10.8373 16.2107C10.9216 16.2107 11.0072 16.1922 11.0889 16.153C11.2898 16.0569 11.4894 15.9503 11.6821 15.8363C11.9773 15.6617 12.083 15.2665 11.9181 14.9537C11.7534 14.6409 11.3804 14.5289 11.0852 14.7035Z" fill="#1D2730"/>
<path d="M7.22502 3.39092V8.31209L4.98008 10.6909C4.74101 10.9443 4.74101 11.355 4.98008 11.6084C5.09965 11.7351 5.25628 11.7984 5.413 11.7984C5.56967 11.7984 5.72636 11.735 5.84593 11.6084L8.27015 9.03952C8.38494 8.91788 8.44943 8.75284 8.44943 8.5808V3.39092C8.44943 3.03263 8.17535 2.74219 7.83722 2.74219C7.4991 2.74219 7.22502 3.03263 7.22502 3.39092Z" fill="#1D2730"/>
<path d="M15.0603 1.67212C14.7222 1.67212 14.4481 1.96256 14.4481 2.32086V4.12226C13.0231 1.75412 10.5346 0.277344 7.83626 0.277344C5.74312 0.277344 3.77527 1.1411 2.29517 2.70945C0.815124 4.27786 0 6.36312 0 8.58114C0 10.7992 0.815124 12.8844 2.29517 14.4528C3.77527 16.0212 5.74312 16.8849 7.83626 16.8849C7.84143 16.8849 7.84642 16.8843 7.85156 16.8841C7.85671 16.8843 7.8617 16.8849 7.86687 16.8849C8.08751 16.8849 8.31032 16.8751 8.52919 16.8557C8.86611 16.8258 9.11638 16.5121 9.08819 16.1551C9.05994 15.7981 8.76433 15.5327 8.42701 15.5628C8.242 15.5791 8.05356 15.5875 7.86687 15.5875C7.8617 15.5875 7.85671 15.5882 7.85156 15.5883C7.84642 15.5882 7.84143 15.5875 7.83626 15.5875C4.19047 15.5875 1.22442 12.4445 1.22442 8.58114C1.22442 4.71783 4.19047 1.57481 7.83626 1.57481C10.1859 1.57481 12.3469 2.9019 13.5278 5.0131H11.8445C11.5064 5.0131 11.2323 5.30354 11.2323 5.66184C11.2323 6.02013 11.5064 6.31057 11.8445 6.31057H13.7135C14.0863 6.31057 14.4351 6.19954 14.7321 6.00719C14.7512 5.99564 14.7695 5.98322 14.787 5.96982C15.3199 5.59839 15.6725 4.95949 15.6725 4.23462V2.32086C15.6725 1.96256 15.3984 1.67212 15.0603 1.67212Z" fill="#1D2730"/>
</g>
<defs>
<clipPath id="clip0_341_162">
<rect width="15.6725" height="16.6076" fill="white" transform="translate(0 0.277344)"/>
</clipPath>
</defs>
</svg>
